<svg xmlns="http://www.w3.org/2000/svg" viewBox="0 0 1680.39 526">
  <defs>
    <style>
      .cls-1{fill:#f7941e}.cls-3{fill:#f79520}.cls-13{fill:#3f5c8c}
    </style>
  </defs>
  <g id="Layer_2" data-name="Layer 2">
    <g id="Layer_2-2" data-name="Layer 2">
      <path d="M329.83 0c16.89 2.86 33.78 5.66 50.65 8.61 3.69.65 7.29 1.84 10 2.53-31.58 3.35-64 5.32-95.93 10.66-22.79 3.82-45.42 10.61-67 18.89-26 10-46.31 27.28-53.21 57.51L119 93.45c-5.66-28.18 7.4-53.68 34.55-68.27 24.69-13.33 52.09-16.91 79.36-20.88 10.31-1.51 20.64-2.87 31-4.3zM0 55.33c20.34-13 42.17-22 66.59-25.55-20.78 39.07-20.78 39.07-12.76 70L23 117.21 0 95.76zM824.31 205c-32.68 11.57-62.6 23.13-93.13 32.73a468.38 468.38 0 0 1-131.62 21.29 378 378 0 0 1-107.14-13c-3-.81-6.2-2-8.4-4-19.29-17.59-38.37-35.41-59.26-54.78 16.69-7.67 33.34-16.59 50.88-23.15 54.69-20.46 111.87-27.26 169.84-28.08 28-.4 56 .43 83.94 1.33 6.46.21 13.72 1.56 19.06 4.89a338.7 338.7 0 0 1 37.93 27.08c12.44 10.33 23.66 22.17 37.9 35.69zM807.38 442.19c.15.12 0 .64-.06 1-55.4 15.11-134.82 3-197.69-26.75l-42.55-81c110.49 34.29 281.17 16.56 318.86-71 32 4.81 44.33 47.66 47.09 62.63.48 1.58 1.15 2.62 1 3.53-4.84 33.11-19.31 60.79-48.68 78" class="cls-1"/>
      <path d="M837.66 217.32l6.86 6.87s33.21 18.31 28.12 30.27c0 0 16.62 17.74-32.93 55.23-17.68 6.41-34.16 12.95-51 18.37-72.87 23.45-145.75 25.61-218.58-.54a42.26 42.26 0 0 1-21.9-16.64c-12.26-17.59-26.67-33.69-40.93-51.3 111.6 16.06 218.22-1.69 319.78-50.22zM720.79 130.32c-108.38-5.35-212.24-.88-305.14 53.61L303.14 126.5c7-13.8 19.88-23.44 34.53-30.85 32.33-16.3 67.41-20.76 102.77-23.16 68.95-4.68 137.05 1.74 204.47 16.78 28.14 6.28 51.43 21.04 75.88 41.05z" class="cls-1"/>
      <path d="M614.85 74.65c-68.93-12.77-134.88-15.44-201-6.29a429.56 429.56 0 0 0-60.08 12.91c-25.74 7.43-47.53 21.6-61.83 43.42L186.28 97.3c2.92-7 5.07-15.09 9.33-21.82 11.54-18.21 29.9-27.65 49.25-35.11 31.74-12.23 65-16.43 98.78-17.66 77-2.82 152.78 3.48 225.68 30.63C581.87 58 593.94 64 606.18 69.47c2.19.98 4.16 2.46 8.67 5.18zM543 408.66l6.64-6.64 2.25.22 57 34.53 1.89-11.26c14 5.11 27.6 10.6 41.54 15.1 50.56 16.33 102 19.09 154.16 9.21 5.55-1.05 24.67-5.88 29.59-8.05 57.63-25.49 55.42-28.82 82-53.2 15.51-19.95 18.84-27.71 24.38-55.42 1.6-3.11 36.09 37.79 37.89 34.78.12-.2 1.1.12 1.69.19.72 5.88-.94 15.34-9 34.49-36.71 52.92-91.28 80.59-148.23 104.91-.33.14-.66.46-1 .42-43.2 12.52-50 13.09-75.8 16.61-18.82 2.57-36.11 2.94-52.21-9.4q-31.5-24.13-64.21-46.73c-28.12-19.48-56.74-38.26-85.14-57.34-1.12-.79-2.27-1.61-3.44-2.42z" class="cls-1"/>
      <path fill="#f7941f" d="M106.11 89.5l-44.74 8c-9.76-23.72-3.73-48.56 15.43-64.41 1.35-1.12 2.79-2.51 4.39-2.88 12.38-2.9 24.81-5.79 37.24-8.21a292.19 292.19 0 0 1 34.16-4.74C124 32.68 100.8 51.36 106.11 89.5z"/>
      <path d="M376.85 284.07l-13 2c-18.95-32.61-78.53-128-98.7-162.75l16.42 4.81c18.24 31.08 77.08 124.87 95.28 155.94zM358.38 288.08c-4.51 2.41-3.92 5.24-10.34 8.68-26.76-15-290.34-162.67-318.19-178.29l11.44-7c28.08 15.1 289.14 161.59 317.09 176.61z" class="cls-3"/>
      <path d="M376.85 284.07c-5.11-2.87-8.56-2.35-13.67-5.22-5.59-24.26-21.62-104.55-27.69-130.85l16.78 9.85c5.94 27.67 18.73 99.15 24.58 126.22z" class="cls-3"/>
      <path fill="#f79521" d="M369.79 284.63c-6.12.7-5.29 2.75-11.41 3.45-19.62-15.44-244.57-172.61-266-189.51L109.73 97C130 112.48 349.07 268.75 369.79 284.63z"/>
      <path fill="#f69624" d="M371.33 283.37l-19-2.56c-9.3-10.45-156.76-163.13-166.83-174.46 11.86-.1 20.44 3 27.2 12 6.14 8.12 151.76 157.46 158.63 165.02z"/>
      <path fill="#f79623" d="M553 402.24l-2.25-.22q2.46-5.24 4.9-10.47l7.05 1.88 32.91 7.76c1.6 3.88 3 7.28 5.29 12.83-5.24-.78-8.82-.84-12.07-1.89-10.32-3.34-20.49-7.14-30.8-10.52-1.44-.48-3.33.39-5.03.63z"/>
      <path fill="#f69523" d="M545 366.65l-12.46-5.92c4.46-7.94 12.62-21.79 17.63-30.69l10.83 9.88c-4.23 7.08-11.95 19.88-16 26.73z"/>
      <path fill="#f89a2d" d="M562.71 393.43l-7.05-1.88q1.25-5.88 2.5-11.75l24.41-2.09c1 3.33 2 6.82 2.81 9.75z"/>
      <path fill="#f79727" d="M557.54 374q-2.26-4.92-4.52-9.83l15-9.47 7.88 9.78z"/>
      <path fill="#e99b40" d="M347.44 293.18c-1.6-.73-46-24.37-47.64-25.1L298.36 256l5.68 3.55c.18 3.57 43.22 30.05 43.4 33.63z"/>
      <path fill="#ea993b" d="M274.4 223.36l3.66 1.68z"/>
      <path d="M412.89 351.09c-2.71 6.68-7.84 13.47-7.53 20 .41 8.64 8.32 13.66 16.94 15.2 12.13 2.15 21.38-2.62 28-13.49 28.14-4.18 56.5-5.18 84-.81 6 8.86 3.88 16.51-1.82 21.41-3.67 3.17-10.84 4.07-16.07 3.33-25.21-3.6-48.7.47-70.32 13.93-4.05 2.52-7.15 6.55-10.26 9.49 7.08 27.92 7.08 31.32-17 36.27-6.94 17.73-14 35.79-21.08 53.87-5.35 13.65-25.7 19-35.7 8.35-3.31-3.54-4.4-12.15-2.59-17 8.66-23.12 18.62-45.76 28.23-68.53 1.91-4.52 4.36-8.83 4.1-13.07-8.21-34.66-16.59-69.32-24.69-104.04-2.66-11.41 3.11-18.16 16.59-20.44 14.07-2.38 18.09.93 20.74 13.88 2.9 14.13 7.2 28 10.88 42z" class="cls-1"/>
      <path fill="#f89420" d="M427.34 353.24c10.16-.07 18.64 6.52 19 14.74s-7.92 15.13-18.27 15.36c-10.84.25-19.53-6.55-19.45-15.22.05-8.12 8.38-14.81 18.72-14.88z"/>
      <path d="M1006.81 238.14c-6.28.64-12.67 2.34-18.8 1.68-10.44-1.12-14.26-8.44-10.94-18.38 1.74-5.22 3.33-10.5 5.08-16.06-12.63-10.77-26.3-12.58-39.59-7.22-27.94 11.28-50.78 29.62-65.74 56.15-10.57 18.75-4.82 27.69 16.37 28.78 19.06 1 38.16 2.17 57.11 4.42 7.48.88 15.82 3.35 21.52 7.9 5.41 4.33 10.82 12.17 11.19 18.75 3.19 58.12-49.93 126.38-106.29 138-47.72 9.84-98.51-31.69-97.57-79.73.28-14.6 9.66-23.93 24-23.79 9.7.1 16.27 3.82 17.2 14.56a155.82 155.82 0 0 0 2.65 18.89c7.22 34.19 43.55 49.37 72.31 29.54 26.37-18.19 40.63-44.66 47-75.56.81-3.94-.28-8.27-.62-15.16-15.21-2-30.18-3.29-44.84-6.11-17.58-3.39-35.44-6.62-52.18-12.68-13.61-4.92-18.46-17.27-13.61-30.6 18.66-51.23 50.63-89.7 105.48-104.23 20.72-5.49 41.45-2.92 61.58 4.86 7.36-9.29 15.72-6.22 23.75-1.78s6.17 11.6 4 18.7c-3.81 12.44-7 25.09-11.23 37.38-1.51 4.38-5.32 8-8.09 11.89zM1145.49 266.7c12.77-1.05 23.68-2.63 34.6-2.71 42.55-.32 59 28.87 56.8 64.22-1.32 21.45-10.55 39.42-29.55 56.18 6.18 5 13.08 9.06 18 14.84 11 12.89 21.46 26.28 31.14 40.16 7.44 10.66 5.14 20.69-4.38 26.64-9.29 5.81-21.34 2.94-27.8-6.8-7.43-11.19-14-23.05-22.28-33.54-6.41-8.08-14.94-14.49-22.52-21.64l-2.87 1.93c1.58 8.44 3.34 16.85 4.7 25.32q2.51 15.72 4.44 31.52c1.31 10.54-3.14 15.31-16 17.67-11.56 2.11-19.66-1.84-21.65-11.19-3.39-15.92-6.37-31.92-9.62-48.38-11.1-3.91-19-10-14.87-24l7.46-6.5c-2.78-15.14-5.77-30-8.19-45-2.38-14.65-4.17-29.39-6.23-44.09a4.7 4.7 0 0 0-.68-.78c-14.75-9.9-17.41-14.74-13.07-23.79 5.26-11 21.71-17.8 33.71-13.84a93.08 93.08 0 0 1 8.86 3.78zM1168 367.84l5.46 1c7.07-11.5 15.77-22.34 20.76-34.69 5.2-12.87 3.46-27.17-6.46-37.82-8.68-9.32-20.81-8.35-35.81-7.06zM1557.45 291.21l-14.41-11c3.18-15 12.52-24.57 25.78-26.73 23.77-3.88 47.23-1.44 70.41 4.56 1.7.44 3.9.77 4.85 2 2.91 3.65 7.6 7.92 7.26 11.53-.32 3.31-6 8.13-9.82 8.72-15.33 2.35-30.88 3.31-47.24 4.87 1.22 19.79 2.44 39.34 3.75 60.51 17.61-1.35 34.7-2.58 51.77-4 11.88-1 18.31 3 20.79 13.23 2.9 12-2.32 17.7-14.48 18.23-19 .83-37.92 2.75-56.43 4.17v50.6c18.85 0 36.13-.59 53.35.16 17.9.78 26.09 7.64 27.25 20.75 1 11-5.08 17.09-15.8 14.91-25.87-5.27-51.35-3-76.66 3.37-15.49 3.89-23.14-1.41-23.48-17.61-.43-20.48-.1-41-.1-60.89-18.86-10.31-19.66-23.3-2.68-33.64-1.39-21.61-2.8-43.41-4.11-63.74z" class="cls-13"/>
      <path d="M1006.58 238.34c33.17-9.43 86.71 1.81 93.63 19.94-2 8.72-9.24 9.62-16.42 9.76-14.13.26-28.26.08-43 .08-1 20.56-2 40.49-3 61.36 18.76 0 36.72-.13 54.69 0 10.61.1 15.82 5.06 16.61 15.12 1 12.2-4.84 16.91-17.22 16.44-18.62-.73-37.3-.19-57.69-.19-1.28 17.77-2.44 33.78-3.64 50.42 17.52 1.26 33.62 2.28 49.68 3.68a66 66 0 0 1 14.49 3c9.8 3.15 15.14 12.3 13.64 22.44-1.46 9.76-7.67 14-17.33 11.21-25.46-7.32-51.12-6.43-76.82-2-15.36 2.67-22.89-3.89-21.54-19.62q2.63-30.65 5.38-61.27l-2.78 1c-2.73-6.17-7.81-12.46-7.5-18.47.29-5.58 6.33-10.86 9.83-16.28l2.77 1.47c1-21.89 1.92-43.78 2.86-65.24l-11.83-8.92c-1.73-13.41 9-17.43 15.52-24.25zM1460.85 432.07c20.17-5 31.17-19.86 39.66-37 4-8.06 9.9-11.75 18.32-12 15.62-.41 22.56 9.78 15 23.2-7.12 12.55-14.8 25-24 36.08-14.89 17.87-34.56 25.54-57.91 20.77-24.45-5-40-20.12-47.09-43.79-8.79-29.45-4.69-58.17 6.19-86.24 2.93-7.55 6.6-14.83 10.25-22.07 15.81-31.35 40.67-50.14 76-54.07 6.17-8.32 13-15.09 24.43-14.47 10.31.56 16.37 6.12 16.78 16.57.3 7.79-.18 15.61.13 23.4.41 10.55-3.64 17.85-14.13 20.78-9.88 2.75-19.85-1.6-25.18-10.84-.7-1.21-1.21-2.53-1.82-3.8-27.13 6.94-49.85 37.15-54.6 72.57-4.88 36.01 1.19 61.25 17.97 70.91zM1287.92 345.74c6.22-9.32 11-16.56 15.87-23.76 18.81-27.85 37.7-55.64 56.42-83.54 5.29-7.88 12.79-12.26 21.64-10 6.61 1.68 14.21 5.61 17.73 10.94 2.06 3.13-1.75 11.83-5 16.55-37.1 53.45-74.68 106.57-112 159.9-9.55 13.67-25 13.32-31-2.39-3.66-9.49-4.5-20.73-4-31.06 2.45-47.69 5.77-95.34 8.93-143 1-14.76 10.11-21.61 24.34-18.82 9.85 1.93 14.7 8 14 17.93q-3.4 50.29-7 100.58c-.01 1.29.07 2.59.07 6.67zM1336.59 474.54c-18.87-.07-28-12.21-22-27 22.86-55.81 46.24-111.41 69.38-167.1 4.1-9.86 11.49-13.79 21.88-12.9 14.3 1.23 19.73 10 14.29 23.52-14.77 36.63-29.81 73.15-44.33 109.88-7.78 19.68-14.88 39.63-22 59.57-3.39 9.7-10.28 13.72-17.22 14.03zM202.92 162.27l5.87-6.24c22.65-3.34 28.63 2.88 26.11 25.4-1.06 9.45-.85 19.1-.41 28.63.36 8.11-2.46 14.93-9.79 16.92a41.56 41.56 0 0 1-22.13-.07c-2.93-.91-5-9.43-4.91-14.42.44-15.51-2.64-20.67-18.22-20.14-9.08.31-19.51 2.82-26.75 8a116.33 116.33 0 0 0-44.37 60.57 43 43 0 0 0-1.91 13.52c.18 10.46 5.58 15.88 16.1 15.06 14.81-1.17 29.48-4.18 44.28-5a233.69 233.69 0 0 1 40.12 1c11.29 1.33 19.43 8.53 22.22 20.1 11.71 48.62-6 110.1-51.59 143.66-36.77 27.08-123.57 6.1-133.31-54.3C42 381.29 47.88 371.45 61.1 369c9.27-1.75 16.74.56 20.61 10.33a204.35 204.35 0 0 0 9.53 21.25c18.16 34 61.34 37.35 83.85 6 15.91-22.19 21.33-47.51 18.67-74.58a24.31 24.31 0 0 0-1.49-6.16c-.72-1.94-1.89-3.72-4.09-7.91-6.26 0-13.49-.11-20.72 0-22.24.39-44.59 2.37-66.71.93-25.44-1.66-35.81-14.49-32.38-39.51 6.8-49.68 28-90.48 76.36-112 18.27-8.04 37.68-9.06 58.19-5.08zM315.14 369.93c29.27 9 42.09 32.64 53.2 57.6 3.69 8.3-.31 16.89-8.81 21.13s-14.87 3-20.58-5.74a416.52 416.52 0 0 0-29.5-40.08c-4.31-5.13-11.72-7.65-18.55-11.87 1.11 18.83 2.76 34.93 2.61 51 0 5.49-3.47 14.43-7.32 15.67-7 2.24-15.66.85-23.08-1.09-2.68-.71-4.92-7.24-5.44-11.35-2.43-19.28-4.2-38.65-6.2-58-9.27-3.6-14.46-10-12.46-19.05 1.18-5.34 5.56-10 8.5-14.93l2.93 1.28q-3.31-45.45-6.66-90.9c-.18-2.47-.67-4.91-.86-7.38-1.1-14.26 2-19.16 12.52-19.83 13.31-.85 22.21 6.51 23 19.06 1.55 25.79 3 51.6 4.65 77.39.41 6.27 1.47 12.5 2.41 20.2 44.4-26.41 40.49-68.43 38.48-109.2 8.21-6.93 16.68-7.11 25.49-3.92 8.65 3.14 7.72 11.07 8.19 18 .89 13.06 2.14 26.17 1.82 39.23-.67 28.42-12.41 51.18-36.8 66.74-2.09 1.33-4.12 2.75-6.15 4.15a12.12 12.12 0 0 0-1.39 1.89z" class="cls-13"/>
    </g>
  </g>
</svg>